<svg width="19" height="16" viewBox="0 0 19 16" fill="none" xmlns="http://www.w3.org/2000/svg">
<path d="M4.77778 9.94444V11.2778C4.77778 11.8301 5.22549 12.2778 5.77778 12.2778H14.9328C15.2031 12.2778 15.4618 12.3872 15.6501 12.581L18 15V4.33333C18 3.78105 17.5523 3.33333 17 3.33333H13.8444M4.77778 9.94444V4.33333C4.77778 3.78105 5.22549 3.33333 5.77778 3.33333H13.8444M4.77778 9.94444H3.45163C3.10223 9.94444 2.77817 10.1268 2.59684 10.4255L1 13.0556V2C1 1.44772 1.44772 1 2 1H12.8444C13.3967 1 13.8444 1.44772 13.8444 2V3.33333M7.42222 6.05556H11.5778H15.7333M7.42222 9.16667H15.7333" stroke="white" stroke-opacity="0.75" stroke-width="0.7"/>
</svg>
