<svg width="16" height="16" viewBox="0 0 16 16" fill="none" xmlns="http://www.w3.org/2000/svg">
<path d="M4.2 1H2C1.44772 1 1 1.44772 1 2V14C1 14.5523 1.44772 15 2 15H3M4.2 1V4.8C4.2 5.35229 4.64772 5.8 5.2 5.8H10.4C10.9523 5.8 11.4 5.35228 11.4 4.8V1M4.2 1H11.4M11.4 1H11.7858C12.051 1 12.3054 1.10536 12.4929 1.29289L14.7071 3.50711C14.8946 3.69464 15 3.949 15 4.21421V14C15 14.5523 14.5523 15 14 15H12.6M12.6 15V9.2C12.6 8.64772 12.1523 8.2 11.6 8.2H4C3.44771 8.2 3 8.64772 3 9.2V15M12.6 15H3" stroke="white" stroke-opacity="0.75" stroke-width="0.7"/>
</svg>
