<svg width="15" height="15" viewBox="0 0 15 15" fill="none" xmlns="http://www.w3.org/2000/svg">
<path d="M11 12L7.81658 3.2456M11 12L9 14.5M11 12H8M7.81658 3.2456L7.02394 1.06583C7.00957 1.02631 6.97201 1 6.92996 1H3C1.89543 1 1 1.89543 1 3V10C1 11.1046 1.89543 12 3 12H8M7.81658 3.2456H12.5C13.6046 3.2456 14.5 4.14103 14.5 5.2456V12.5C14.5 13.6046 13.6046 14.5 12.5 14.5H9M9 14.5L8 12" stroke="white" stroke-opacity="0.75" stroke-width="0.5"/>
<path d="M7.20136 4.93202H5.30057V4.28324C5.30057 4.12745 5.17312 4 5.01733 4C4.86154 4 4.73408 4.12745 4.73408 4.28324V4.93202H2.83305C2.67726 4.93202 2.5498 5.05947 2.5498 5.21526C2.5498 5.37105 2.67726 5.49851 2.83305 5.49851H3.69429C3.82743 5.80439 4.13333 6.43905 4.63201 7.04527C4.25237 7.41638 3.79068 7.7308 3.24104 7.84984C3.08809 7.88387 2.9917 8.03397 3.02573 8.1869C3.05407 8.32004 3.17298 8.41074 3.3034 8.41074C3.3232 8.41074 3.34312 8.4079 3.36292 8.40505C4.02866 8.26053 4.57533 7.89511 5.01734 7.46733C5.45924 7.89511 6.00603 8.26052 6.67177 8.40505C6.69157 8.41074 6.71148 8.41074 6.73128 8.41074C6.86158 8.41074 6.97777 8.32004 7.00895 8.1869C7.04298 8.03395 6.94659 7.88373 6.79364 7.84984C6.24412 7.7308 5.78232 7.41921 5.40267 7.04527C5.90124 6.43905 6.2101 5.80451 6.3404 5.49851H7.20163C7.35742 5.49851 7.48488 5.37105 7.48488 5.21526C7.48464 5.05947 7.35715 4.93202 7.20136 4.93202ZM5.01721 6.61476C4.69708 6.20962 4.46198 5.7904 4.32029 5.49863H5.71412C5.57243 5.79041 5.33733 6.2068 5.01721 6.61476Z" fill="white" fill-opacity="0.65"/>
<path d="M13.3171 8.25494V8.2521L12.4475 6.17275C12.4022 6.06794 12.3002 6 12.1869 6C12.0735 6 11.9687 6.06794 11.9263 6.17275L11.0566 8.2521L10.6714 9.17273C10.6119 9.31726 10.68 9.48433 10.8244 9.54385C10.9689 9.60336 11.136 9.53531 11.1955 9.3909L11.5071 8.64585H12.8668L13.1784 9.3909C13.2236 9.49855 13.3284 9.56364 13.4389 9.56364C13.4758 9.56364 13.5126 9.55511 13.5494 9.541C13.694 9.48148 13.7619 9.31443 13.7024 9.16988L13.3171 8.25494ZM11.742 8.07923L12.1867 7.01691L12.6314 8.07923H11.742Z" fill="white" fill-opacity="0.65"/>
</svg>
