<svg width="16" height="16" viewBox="0 0 16 16" fill="none" xmlns="http://www.w3.org/2000/svg">
<path d="M15 3.05882V2C15 1.44772 14.5523 1 14 1H2C1.44772 1 1 1.44772 1 2V3.05882M15 3.05882V14C15 14.5523 14.5523 15 14 15H8.82353M15 3.05882H8.82353M1 3.05882V14C1 14.5523 1.44772 15 2 15H2.23529M1 3.05882H7.58824M2.23529 3.05882V15M2.23529 15H3.05882H7.58824M7.58824 3.05882V15M7.58824 3.05882H8.20588H8.82353M7.58824 15H8.82353M8.82353 3.05882V15" stroke="white" stroke-opacity="0.75" stroke-width="0.7"/>
</svg>
